<svg xmlns="http://www.w3.org/2000/svg" xmlns:xlink="http://www.w3.org/1999/xlink" width="1280" height="1024" version="1.1" viewBox="0 0 1280 1024" xml:space="preserve"><desc>Created with Fabric.js 3.6.3</desc><g id="background-logo" transform="matrix(1.9662058371735793 0 0 1.9662058371735793 640.2456813819576 512.1966205837173)"><rect style="stroke:none;stroke-width:1;stroke-dasharray:none;stroke-linecap:butt;stroke-dashoffset:0;stroke-linejoin:miter;stroke-miterlimit:4;fill:#fff;fill-rule:nonzero;opacity:1" width="650" height="520" x="-325" y="-260" paint-order="stroke" rx="0" ry="0"/></g><g id="logo-logo"><g paint-order="stroke"><g><path style="stroke:none;stroke-width:1;stroke-dasharray:none;stroke-linecap:butt;stroke-dashoffset:0;stroke-linejoin:miter;stroke-miterlimit:4;fill:#171718;fill-rule:nonzero;opacity:1" stroke-linecap="round" d="M 0 0 L -16.896 19.343 L 0 24.368 L 16.896 19.343 Z M 36.626 131.12 H 57.134 V 103.988 H 0 H -57.134 v 27.132 h 20.508 z m -66.859 29.859 l 15.31 -12.183 L 0 166.397 L 14.923 148.796 L 30.233 160.979 V 137.512 H -30.233 Z M 33.896 51.724 L 47.345 54.196 L 36.623 41.923 Z m -30.7 -12.273 l 14.14 11.468 l -5.069 21.472 l 44.911 8.356 l 5.474 16.849 H 85.257 L 54.106 61.938 L 25.857 56.75 L 31.589 36.161 L 21.519 24.631 L 3.196 30.084 Z m -66.722 64.537 h -21.301 l 21.301 22.343 z m 53.797 -48.656 l 5.228 22.115 l -47.77 8.887 l -3.658 11.262 H 0 H 55.929 L 52.271 86.334 L 4.507 77.447 L 9.727 55.332 Z M 0 45.085 L -4.754 48.939 H 4.751 Z M 63.526 126.331 L 84.83 103.988 H 63.526 Z M -54.106 61.938 L -85.257 97.596 h 22.605 l 5.475 -16.849 l 44.91 -8.356 l -5.082 -21.472 l 14.153 -11.472 v -9.363 l -18.323 -5.453 l -10.069 11.53 l 5.724 20.589 z m 17.483 -20.015 l -10.722 12.273 l 13.45 -2.472 z M 24.122 17.895 L 96.619 100.886 L 61.7 137.512 H 36.626 v 36.726 L 15.788 157.654 L 0 176.28 L -15.794 157.654 L -36.626 174.238 V 137.512 H -61.7 l -34.919 -36.626 l 72.497 -82.991 l 0.193 -0.647 l 0.294 0.088 L 0 -9.717 L 23.635 17.336 L 23.929 17.248 Z" paint-order="stroke" transform="matrix(1.9699870022450665 0 0 1.9699870022450665 640.2456813819578 421.5687788331531) matrix(1.4953369620679504 0 0 -1.4953369620679502 0 0) translate(0, -83.28150000000001)"/></g><g><path style="stroke:none;stroke-width:1;stroke-dasharray:none;stroke-linecap:butt;stroke-dashoffset:0;stroke-linejoin:miter;stroke-miterlimit:4;fill:#171718;fill-rule:nonzero;opacity:1" stroke-linecap="round" d="M 0 0 C 2.94 0 5.325 2.385 5.325 5.325 C 5.325 8.269 2.94 10.653 0 10.653 C -2.94 10.653 -5.325 8.269 -5.325 5.325 C -5.325 2.385 -2.94 0 0 0" paint-order="stroke" transform="matrix(1.9699870022450665 0 0 1.9699870022450665 640.2456813819578 421.5687788331531) matrix(1.4953369620679504 0 0 -1.4953369620679502 57.95163443124716 -51.24609489224591) translate(0, -5.3265)"/></g><g><path style="stroke:none;stroke-width:1;stroke-dasharray:none;stroke-linecap:butt;stroke-dashoffset:0;stroke-linejoin:miter;stroke-miterlimit:4;fill:#171718;fill-rule:nonzero;opacity:1" stroke-linecap="round" d="M 0 0 L -21.176 8.524 L -42.351 0 L -21.176 -8.521 Z" paint-order="stroke" transform="matrix(1.9699870022450665 0 0 1.9699870022450665 640.2456813819578 421.5687788331531) matrix(1.4953369620679504 0 0 -1.4953369620679502 0.00044860108869215765 -50.42066888918433) translate(21.1755, -0.0015000000000000568)"/></g><g><path style="stroke:none;stroke-width:1;stroke-dasharray:none;stroke-linecap:butt;stroke-dashoffset:0;stroke-linejoin:miter;stroke-miterlimit:4;fill:#171718;fill-rule:nonzero;opacity:1" stroke-linecap="round" d="M 0 0 C 2.94 0 5.325 2.385 5.325 5.325 C 5.325 8.269 2.94 10.653 0 10.653 C -2.94 10.653 -5.325 8.269 -5.325 5.325 C -5.325 2.385 -2.94 0 0 0" paint-order="stroke" transform="matrix(1.9699870022450665 0 0 1.9699870022450665 640.2456813819578 421.5687788331531) matrix(1.4953369620679504 0 0 -1.4953369620679502 -57.951634431247214 -51.24609489224591) translate(0, -5.3265)"/></g></g></g><g id="text-logo-path"><path style="stroke:#171718;stroke-width:17;stroke-dasharray:none;stroke-linecap:butt;stroke-dashoffset:0;stroke-linejoin:miter;stroke-miterlimit:4;fill:#fff;fill-rule:nonzero;opacity:1" stroke-linecap="round" d="M 22.61 0 L 4.19 0 L 4.19 -37.41 L 20.41 -37.41 Q 24.36 -37.41 27.18 -36.66 Q 30 -35.91 31.6 -34.5 Q 33.19 -33.09 33.92 -31.27 Q 34.64 -29.46 34.64 -27.12 L 34.64 -27.12 Q 34.64 -25.78 34.23 -24.49 Q 33.81 -23.2 33.18 -22.3 Q 32.55 -21.4 32.04 -20.83 Q 31.53 -20.25 31.13 -19.95 L 31.13 -19.95 Q 33.84 -18.58 35.29 -16.25 Q 36.74 -13.91 36.74 -10.9 L 36.74 -10.9 Q 36.74 -8.54 35.95 -6.62 Q 35.15 -4.7 33.53 -3.18 Q 31.9 -1.67 29.12 -0.83 Q 26.35 0 22.61 0 L 22.61 0 Z M 13.21 -15.01 L 13.21 -7.76 L 21.56 -7.76 Q 27.02 -7.76 27.02 -11.39 L 27.02 -11.39 Q 27.02 -13.37 25.69 -14.19 Q 24.36 -15.01 21.56 -15.01 L 21.56 -15.01 L 13.21 -15.01 Z M 13.21 -29.7 L 13.21 -21.89 L 20.95 -21.89 Q 23.82 -21.89 24.95 -22.81 Q 26.08 -23.74 26.08 -25.97 L 26.08 -25.97 Q 26.08 -29.7 20.95 -29.7 L 20.95 -29.7 L 13.21 -29.7 Z M 71.7 0 L 43.05 0 L 43.05 -37.41 L 52.07 -37.41 L 52.07 -8.35 L 71.7 -8.35 L 71.7 0 Z M 85.48 0 L 75.92 0 L 91.93 -37.41 L 101.97 -37.41 L 118.03 0 L 108.42 0 L 106 -5.83 L 87.95 -5.83 L 85.48 0 Z M 97.03 -27.18 L 91.09 -13.21 L 102.86 -13.21 L 97.03 -27.18 Z M 118.75 -18.99 L 118.75 -18.99 Q 118.75 -22.85 120.29 -26.35 Q 121.82 -29.84 124.48 -32.41 Q 127.13 -34.99 130.92 -36.52 Q 134.71 -38.05 139 -38.05 L 139 -38.05 Q 144.86 -38.05 149.44 -35.54 Q 154.02 -33.03 156.59 -28.71 L 156.59 -28.71 L 148.94 -24.25 Q 147.57 -26.88 145.02 -28.4 Q 142.47 -29.92 139 -29.92 L 139 -29.92 Q 134.14 -29.92 131.01 -26.79 Q 127.89 -23.66 127.89 -18.99 L 127.89 -18.99 Q 127.89 -16.03 129.28 -13.48 Q 130.68 -10.93 133.24 -9.37 Q 135.81 -7.81 139 -7.81 L 139 -7.81 Q 142.33 -7.81 144.87 -9.35 Q 147.41 -10.88 148.83 -13.48 L 148.83 -13.48 L 156.49 -9.08 Q 153.85 -4.67 149.29 -2 Q 144.72 0.67 139 0.67 L 139 0.67 Q 134.68 0.67 130.91 -0.86 Q 127.13 -2.39 124.48 -5.01 Q 121.82 -7.63 120.29 -11.25 Q 118.75 -14.88 118.75 -18.99 Z M 171.55 0 L 162.53 0 L 162.53 -37.41 L 171.55 -37.41 L 171.55 -20.95 L 185.84 -37.41 L 197.17 -37.41 L 184.31 -22.32 L 199.91 0 L 188.2 0 L 177.97 -15.44 L 171.55 -8.41 L 171.55 0 Z M 222.07 0 L 205.52 0 L 205.52 -37.36 L 222.07 -37.41 Q 222.15 -37.41 222.23 -37.41 L 222.23 -37.41 Q 226.66 -37.44 230.34 -36.04 L 230.34 -36.04 Q 234.07 -34.64 236.57 -32.15 Q 239.07 -29.65 240.44 -26.21 Q 241.81 -22.77 241.81 -18.75 L 241.81 -18.75 Q 241.81 -13.35 239.32 -9.08 Q 236.84 -4.81 232.33 -2.4 Q 227.81 0 222.07 0 L 222.07 0 Z M 214.55 -29.03 L 214.55 -8.35 L 222.07 -8.35 Q 226.79 -8.35 229.74 -11.21 Q 232.68 -14.07 232.68 -18.75 L 232.68 -18.75 Q 232.68 -23.69 229.82 -26.36 Q 226.96 -29.03 222.07 -29.03 L 222.07 -29.03 L 214.55 -29.03 Z M 257.17 0 L 248.14 0 L 248.14 -37.41 L 257.17 -37.41 L 257.17 0 Z M 272.88 0 L 263.32 0 L 279.32 -37.41 L 289.37 -37.41 L 305.43 0 L 295.81 0 L 293.4 -5.83 L 275.35 -5.83 L 272.88 0 Z M 284.43 -27.18 L 278.49 -13.21 L 290.25 -13.21 L 284.43 -27.18 Z M 320.57 0 L 311.55 0 L 311.55 -37.41 L 321.54 -37.41 L 334.59 -9.96 L 347.56 -37.41 L 357.63 -37.41 L 357.63 0 L 348.56 0 L 348.56 -19.09 L 339.59 0 L 329.52 0 L 320.57 -19.09 L 320.57 0 Z M 363.52 -18.69 L 363.52 -18.69 Q 363.52 -22.61 365.03 -26.18 Q 366.55 -29.76 369.13 -32.36 Q 371.71 -34.97 375.28 -36.51 Q 378.85 -38.05 382.8 -38.05 L 382.8 -38.05 Q 386.69 -38.05 390.28 -36.51 Q 393.86 -34.97 396.44 -32.36 Q 399.02 -29.76 400.56 -26.17 Q 402.11 -22.59 402.11 -18.69 L 402.11 -18.69 Q 402.11 -14.77 400.58 -11.19 Q 399.05 -7.6 396.45 -5.01 Q 393.86 -2.42 390.28 -0.87 Q 386.69 0.67 382.8 0.67 L 382.8 0.67 Q 377.53 0.67 373.09 -1.93 Q 368.65 -4.54 366.08 -8.98 Q 363.52 -13.43 363.52 -18.69 Z M 371.76 -18.69 L 371.76 -18.69 Q 371.76 -14.13 375 -10.92 Q 378.23 -7.71 382.8 -7.71 L 382.8 -7.71 Q 387.31 -7.71 390.53 -10.92 Q 393.75 -14.13 393.75 -18.69 L 393.75 -18.69 Q 393.75 -23.2 390.53 -26.43 Q 387.31 -29.65 382.8 -29.65 L 382.8 -29.65 Q 378.23 -29.65 375 -26.44 Q 371.76 -23.23 371.76 -18.69 Z M 416.56 0 L 407.48 0 L 407.48 -37.41 L 416.56 -37.41 L 435.49 -14.58 L 435.49 -37.41 L 444.57 -37.41 L 444.57 0 L 435.49 0 L 416.56 -22.88 L 416.56 0 Z M 468.95 0 L 452.41 0 L 452.41 -37.36 L 468.95 -37.41 Q 469.03 -37.41 469.11 -37.41 L 469.11 -37.41 Q 473.54 -37.44 477.22 -36.04 L 477.22 -36.04 Q 480.95 -34.64 483.45 -32.15 Q 485.95 -29.65 487.32 -26.21 Q 488.69 -22.77 488.69 -18.75 L 488.69 -18.75 Q 488.69 -13.35 486.2 -9.08 Q 483.72 -4.81 479.21 -2.4 Q 474.7 0 468.95 0 L 468.95 0 Z M 461.43 -29.03 L 461.43 -8.35 L 468.95 -8.35 Q 473.68 -8.35 476.62 -11.21 Q 479.56 -14.07 479.56 -18.75 L 479.56 -18.75 Q 479.56 -23.69 476.7 -26.36 Q 473.84 -29.03 468.95 -29.03 L 468.95 -29.03 L 461.43 -29.03 Z M 516.56 0 L 507.49 0 L 507.49 -37.41 L 516.56 -37.41 L 535.5 -14.58 L 535.5 -37.41 L 544.58 -37.41 L 544.58 0 L 535.5 0 L 516.56 -22.88 L 516.56 0 Z M 561.44 0 L 552.42 0 L 552.42 -37.41 L 581.07 -37.41 L 581.07 -29.03 L 561.44 -29.03 L 561.44 -20.46 L 577.82 -20.46 L 577.82 -12.17 L 561.44 -12.17 L 561.44 0 Z M 599.15 -29.03 L 585.91 -29.03 L 585.91 -37.41 L 621.54 -37.41 L 621.54 -29.03 L 608.28 -29.03 L 608.28 0 L 599.15 0 L 599.15 -29.03 Z" paint-order="stroke" transform="matrix(1.9699870022450665 0 0 1.9699870022450665 642.4412357435906 794.9504136833962) translate(-312.86499999999995, 18.689999999999998)"/></g></svg>